<svg width="201" height="90" viewBox="0 0 201 90" fill="none" xmlns="http://www.w3.org/2000/svg">
<path d="M200.418 66.4343C200.418 72.4273 200.446 78.4174 200.412 84.4104C200.381 89.6841 197.814 91.1113 193.243 88.3195C172.239 75.4778 151.271 62.5764 130.25 49.7631C128.938 48.9642 127.213 48.1625 125.805 48.3445C123.203 48.6771 122.853 50.9401 122.862 53.2315C122.896 63.3412 122.984 73.4565 122.794 83.5632C122.757 85.4623 122.031 88.2172 120.705 88.9706C119.424 89.7012 116.664 88.8398 115.056 87.859C94.4698 75.2902 73.9945 62.5451 53.414 49.9621C51.8858 49.0268 49.1994 48.1028 48.1066 48.8079C46.7463 49.6835 45.8926 52.245 45.8528 54.1015C45.6422 63.9581 45.7674 73.8232 45.7475 83.6826C45.7361 88.5555 44.8824 89.488 40.1527 89.5079C28.7725 89.5562 17.3923 89.5591 6.01207 89.5221C1.44178 89.5079 0.528286 88.547 0.519748 83.9925C0.502674 72.632 0.496982 61.2743 0.528286 49.9138C0.539669 45.6493 1.55276 44.6316 5.87832 44.6145C17.0081 44.5719 28.1407 44.6117 39.2705 44.5861C44.1026 44.5747 45.0019 43.6848 45.0133 38.9229C45.036 27.8125 44.9165 16.7022 45.1157 5.5947C45.1499 3.72971 46.0036 1.16535 47.3667 0.26697C48.4538 -0.449459 51.1658 0.437549 52.6911 1.37004C73.2717 13.9474 93.7498 26.6924 114.336 39.2612C115.944 40.242 118.676 41.1262 119.965 40.4097C121.283 39.6763 122.017 36.9243 122.054 35.0365C122.25 25.0548 122.059 15.0646 122.227 5.08012C122.256 3.4113 122.967 0.841251 124.103 0.332359C125.514 -0.298781 127.996 0.284028 129.495 1.19378C151.829 14.7349 174.054 28.4579 196.377 42.0217C199.254 43.7701 200.665 45.709 200.492 49.2116C200.21 54.9402 200.415 60.6915 200.418 66.4343Z" fill="#2D32FF"/>
</svg>
