<svg width="1440" height="1039" viewBox="0 0 1440 1039" fill="none" xmlns="http://www.w3.org/2000/svg">
<g clip-path="url(#clip0_19_1956)">
<path d="M80.2678 0.391602H0.267822V58.1138H80.2678V0.391602Z" stroke="#404040" stroke-width="0.630746"/>
<path d="M160.268 0.391729H80.2676V58.1139H160.268V0.391729Z" stroke="#404040" stroke-width="0.630746"/>
<path d="M240.268 0.391729H160.268V58.1139H240.268V0.391729Z" stroke="#404040" stroke-width="0.630746"/>
<path d="M320.268 0.391729H240.268V58.1139H320.268V0.391729Z" stroke="#404040" stroke-width="0.630746"/>
<path d="M400.268 0.391729H320.268V58.1139H400.268V0.391729Z" stroke="#404040" stroke-width="0.630746"/>
<path d="M480.268 0.391729H400.268V58.1139H480.268V0.391729Z" stroke="#404040" stroke-width="0.630746"/>
<path d="M560.268 0.391729H480.268V58.1139H560.268V0.391729Z" stroke="#404040" stroke-width="0.630746"/>
<path d="M640.268 0.391729H560.268V58.1139H640.268V0.391729Z" stroke="#404040" stroke-width="0.630746"/>
<path d="M720.268 0.391729H640.268V58.1139H720.268V0.391729Z" stroke="#404040" stroke-width="0.630746"/>
<path d="M800.268 0.391729H720.268V58.1139H800.268V0.391729Z" stroke="#404040" stroke-width="0.630746"/>
<path d="M880.268 0.391729H800.268V58.1139H880.268V0.391729Z" stroke="#404040" stroke-width="0.630746"/>
<path d="M960.268 0.391729H880.268V58.1139H960.268V0.391729Z" stroke="#404040" stroke-width="0.630746"/>
<path d="M1040.27 0.391729H960.268V58.1139H1040.27V0.391729Z" stroke="#404040" stroke-width="0.630746"/>
<path d="M1120.27 0.391729H1040.27V58.1139H1120.27V0.391729Z" stroke="#404040" stroke-width="0.630746"/>
<path d="M1200.27 0.391729H1120.27V58.1139H1200.27V0.391729Z" stroke="#404040" stroke-width="0.630746"/>
<path d="M1280.27 0.391729H1200.27V58.1139H1280.27V0.391729Z" stroke="#404040" stroke-width="0.630746"/>
<path d="M1360.27 0.391729H1280.27V58.1139H1360.27V0.391729Z" stroke="#404040" stroke-width="0.630746"/>
<path d="M1440.27 0.391729H1360.27V58.1139H1440.27V0.391729Z" stroke="#404040" stroke-width="0.630746"/>
<path d="M1520.27 0.391729H1440.27V58.1139H1520.27V0.391729Z" stroke="#404040" stroke-width="0.630746"/>
<path d="M80.2678 58.1141H0.267822V115.836H80.2678V58.1141Z" stroke="#404040" stroke-width="0.630746"/>
<path d="M160.268 58.1141H80.2676V115.836H160.268V58.1141Z" stroke="#404040" stroke-width="0.630746"/>
<path d="M240.268 58.1141H160.268V115.836H240.268V58.1141Z" stroke="#404040" stroke-width="0.630746"/>
<path d="M320.268 58.1141H240.268V115.836H320.268V58.1141Z" stroke="#404040" stroke-width="0.630746"/>
<path d="M400.268 58.1141H320.268V115.836H400.268V58.1141Z" stroke="#404040" stroke-width="0.630746"/>
<path d="M480.268 58.1141H400.268V115.836H480.268V58.1141Z" stroke="#404040" stroke-width="0.630746"/>
<path d="M560.268 58.1141H480.268V115.836H560.268V58.1141Z" stroke="#404040" stroke-width="0.630746"/>
<path d="M640.268 58.1141H560.268V115.836H640.268V58.1141Z" stroke="#404040" stroke-width="0.630746"/>
<path d="M720.268 58.1141H640.268V115.836H720.268V58.1141Z" stroke="#404040" stroke-width="0.630746"/>
<path d="M800.268 58.1141H720.268V115.836H800.268V58.1141Z" stroke="#404040" stroke-width="0.630746"/>
<path d="M880.268 58.1141H800.268V115.836H880.268V58.1141Z" stroke="#404040" stroke-width="0.630746"/>
<path d="M960.268 58.1141H880.268V115.836H960.268V58.1141Z" stroke="#404040" stroke-width="0.630746"/>
<path d="M1040.27 58.1141H960.268V115.836H1040.27V58.1141Z" stroke="#404040" stroke-width="0.630746"/>
<path d="M1120.27 58.1141H1040.27V115.836H1120.27V58.1141Z" stroke="#404040" stroke-width="0.630746"/>
<path d="M1200.27 58.1141H1120.27V115.836H1200.27V58.1141Z" stroke="#404040" stroke-width="0.630746"/>
<path d="M1280.27 58.1141H1200.27V115.836H1280.27V58.1141Z" stroke="#404040" stroke-width="0.630746"/>
<path d="M1360.27 58.1141H1280.27V115.836H1360.27V58.1141Z" stroke="#404040" stroke-width="0.630746"/>
<path d="M1440.27 58.1141H1360.27V115.836H1440.27V58.1141Z" stroke="#404040" stroke-width="0.630746"/>
<path d="M1520.27 58.1141H1440.27V115.836H1520.27V58.1141Z" stroke="#404040" stroke-width="0.630746"/>
<path d="M80.2678 115.836H0.267822V173.558H80.2678V115.836Z" stroke="#404040" stroke-width="0.630746"/>
<path d="M160.268 115.836H80.2676V173.558H160.268V115.836Z" stroke="#404040" stroke-width="0.630746"/>
<path d="M240.268 115.836H160.268V173.558H240.268V115.836Z" stroke="#404040" stroke-width="0.630746"/>
<path d="M320.268 115.836H240.268V173.558H320.268V115.836Z" stroke="#404040" stroke-width="0.630746"/>
<path d="M400.268 115.836H320.268V173.558H400.268V115.836Z" stroke="#404040" stroke-width="0.630746"/>
<path d="M480.268 115.836H400.268V173.558H480.268V115.836Z" stroke="#404040" stroke-width="0.630746"/>
<path d="M560.268 115.836H480.268V173.558H560.268V115.836Z" stroke="#404040" stroke-width="0.630746"/>
<path d="M640.268 115.836H560.268V173.558H640.268V115.836Z" stroke="#404040" stroke-width="0.630746"/>
<path d="M720.268 115.836H640.268V173.558H720.268V115.836Z" stroke="#404040" stroke-width="0.630746"/>
<path d="M800.268 115.836H720.268V173.558H800.268V115.836Z" stroke="#404040" stroke-width="0.630746"/>
<path d="M880.268 115.836H800.268V173.558H880.268V115.836Z" stroke="#404040" stroke-width="0.630746"/>
<path d="M960.268 115.836H880.268V173.558H960.268V115.836Z" stroke="#404040" stroke-width="0.630746"/>
<path d="M1040.27 115.836H960.268V173.558H1040.27V115.836Z" stroke="#404040" stroke-width="0.630746"/>
<path d="M1120.27 115.836H1040.27V173.558H1120.27V115.836Z" stroke="#404040" stroke-width="0.630746"/>
<path d="M1200.27 115.836H1120.27V173.558H1200.27V115.836Z" stroke="#404040" stroke-width="0.630746"/>
<path d="M1280.27 115.836H1200.27V173.558H1280.27V115.836Z" stroke="#404040" stroke-width="0.630746"/>
<path d="M1360.27 115.836H1280.27V173.558H1360.27V115.836Z" stroke="#404040" stroke-width="0.630746"/>
<path d="M1440.27 115.836H1360.27V173.558H1440.27V115.836Z" stroke="#404040" stroke-width="0.630746"/>
<path d="M1520.27 115.836H1440.27V173.558H1520.27V115.836Z" stroke="#404040" stroke-width="0.630746"/>
<path d="M80.2678 173.558H0.267822V231.281H80.2678V173.558Z" stroke="#404040" stroke-width="0.630746"/>
<path d="M160.268 173.558H80.2676V231.281H160.268V173.558Z" stroke="#404040" stroke-width="0.630746"/>
<path d="M240.268 173.558H160.268V231.281H240.268V173.558Z" stroke="#404040" stroke-width="0.630746"/>
<path d="M320.268 173.558H240.268V231.281H320.268V173.558Z" stroke="#404040" stroke-width="0.630746"/>
<path d="M400.268 173.558H320.268V231.281H400.268V173.558Z" stroke="#404040" stroke-width="0.630746"/>
<path d="M480.268 173.558H400.268V231.281H480.268V173.558Z" stroke="#404040" stroke-width="0.630746"/>
<path d="M560.268 173.558H480.268V231.281H560.268V173.558Z" stroke="#404040" stroke-width="0.630746"/>
<path d="M640.268 173.558H560.268V231.281H640.268V173.558Z" stroke="#404040" stroke-width="0.630746"/>
<path d="M720.268 173.558H640.268V231.281H720.268V173.558Z" stroke="#404040" stroke-width="0.630746"/>
<path d="M800.268 173.558H720.268V231.281H800.268V173.558Z" stroke="#404040" stroke-width="0.630746"/>
<path d="M880.268 173.558H800.268V231.281H880.268V173.558Z" stroke="#404040" stroke-width="0.630746"/>
<path d="M960.268 173.558H880.268V231.281H960.268V173.558Z" stroke="#404040" stroke-width="0.630746"/>
<path d="M1040.27 173.558H960.268V231.281H1040.27V173.558Z" stroke="#404040" stroke-width="0.630746"/>
<path d="M1120.27 173.558H1040.27V231.281H1120.27V173.558Z" stroke="#404040" stroke-width="0.630746"/>
<path d="M1200.27 173.558H1120.27V231.281H1200.27V173.558Z" stroke="#404040" stroke-width="0.630746"/>
<path d="M1280.27 173.558H1200.27V231.281H1280.27V173.558Z" stroke="#404040" stroke-width="0.630746"/>
<path d="M1360.27 173.558H1280.27V231.281H1360.27V173.558Z" stroke="#404040" stroke-width="0.630746"/>
<path d="M1440.27 173.558H1360.27V231.281H1440.27V173.558Z" stroke="#404040" stroke-width="0.630746"/>
<path d="M1520.27 173.558H1440.27V231.281H1520.27V173.558Z" stroke="#404040" stroke-width="0.630746"/>
<path d="M80.2678 231.281H0.267822V289.003H80.2678V231.281Z" stroke="#404040" stroke-width="0.630746"/>
<path d="M160.268 231.281H80.2676V289.003H160.268V231.281Z" stroke="#404040" stroke-width="0.630746"/>
<path d="M240.268 231.281H160.268V289.003H240.268V231.281Z" stroke="#404040" stroke-width="0.630746"/>
<path d="M320.268 231.281H240.268V289.003H320.268V231.281Z" stroke="#404040" stroke-width="0.630746"/>
<path d="M400.268 231.281H320.268V289.003H400.268V231.281Z" stroke="#404040" stroke-width="0.630746"/>
<path d="M480.268 231.281H400.268V289.003H480.268V231.281Z" stroke="#404040" stroke-width="0.630746"/>
<path d="M560.268 231.281H480.268V289.003H560.268V231.281Z" stroke="#404040" stroke-width="0.630746"/>
<path d="M640.268 231.281H560.268V289.003H640.268V231.281Z" stroke="#404040" stroke-width="0.630746"/>
<path d="M720.268 231.281H640.268V289.003H720.268V231.281Z" stroke="#404040" stroke-width="0.630746"/>
<path d="M800.268 231.281H720.268V289.003H800.268V231.281Z" stroke="#404040" stroke-width="0.630746"/>
<path d="M880.268 231.281H800.268V289.003H880.268V231.281Z" stroke="#404040" stroke-width="0.630746"/>
<path d="M960.268 231.281H880.268V289.003H960.268V231.281Z" stroke="#404040" stroke-width="0.630746"/>
<path d="M1040.27 231.281H960.268V289.003H1040.27V231.281Z" stroke="#404040" stroke-width="0.630746"/>
<path d="M1120.27 231.281H1040.27V289.003H1120.27V231.281Z" stroke="#404040" stroke-width="0.630746"/>
<path d="M1200.27 231.281H1120.27V289.003H1200.27V231.281Z" stroke="#404040" stroke-width="0.630746"/>
<path d="M1280.27 231.281H1200.27V289.003H1280.27V231.281Z" stroke="#404040" stroke-width="0.630746"/>
<path d="M1360.27 231.281H1280.27V289.003H1360.27V231.281Z" stroke="#404040" stroke-width="0.630746"/>
<path d="M1440.27 231.281H1360.27V289.003H1440.27V231.281Z" stroke="#404040" stroke-width="0.630746"/>
<path d="M1520.27 231.281H1440.27V289.003H1520.27V231.281Z" stroke="#404040" stroke-width="0.630746"/>
<path d="M80.2678 289.003H0.267822V346.725H80.2678V289.003Z" stroke="#404040" stroke-width="0.630746"/>
<path d="M160.268 289.003H80.2676V346.725H160.268V289.003Z" stroke="#404040" stroke-width="0.630746"/>
<path d="M240.268 289.003H160.268V346.725H240.268V289.003Z" stroke="#404040" stroke-width="0.630746"/>
<path d="M320.268 289.003H240.268V346.725H320.268V289.003Z" stroke="#404040" stroke-width="0.630746"/>
<path d="M400.268 289.003H320.268V346.725H400.268V289.003Z" stroke="#404040" stroke-width="0.630746"/>
<path d="M480.268 289.003H400.268V346.725H480.268V289.003Z" stroke="#404040" stroke-width="0.630746"/>
<path d="M560.268 289.003H480.268V346.725H560.268V289.003Z" stroke="#404040" stroke-width="0.630746"/>
<path d="M640.268 289.003H560.268V346.725H640.268V289.003Z" stroke="#404040" stroke-width="0.630746"/>
<path d="M720.268 289.003H640.268V346.725H720.268V289.003Z" stroke="#404040" stroke-width="0.630746"/>
<path d="M800.268 289.003H720.268V346.725H800.268V289.003Z" stroke="#404040" stroke-width="0.630746"/>
<path d="M880.268 289.003H800.268V346.725H880.268V289.003Z" stroke="#404040" stroke-width="0.630746"/>
<path d="M960.268 289.003H880.268V346.725H960.268V289.003Z" stroke="#404040" stroke-width="0.630746"/>
<path d="M1040.27 289.003H960.268V346.725H1040.27V289.003Z" stroke="#404040" stroke-width="0.630746"/>
<path d="M1120.27 289.003H1040.27V346.725H1120.27V289.003Z" stroke="#404040" stroke-width="0.630746"/>
<path d="M1200.27 289.003H1120.27V346.725H1200.27V289.003Z" stroke="#404040" stroke-width="0.630746"/>
<path d="M1280.27 289.003H1200.27V346.725H1280.27V289.003Z" stroke="#404040" stroke-width="0.630746"/>
<path d="M1360.27 289.003H1280.27V346.725H1360.27V289.003Z" stroke="#404040" stroke-width="0.630746"/>
<path d="M1440.27 289.003H1360.27V346.725H1440.27V289.003Z" stroke="#404040" stroke-width="0.630746"/>
<path d="M1520.27 289.003H1440.27V346.725H1520.27V289.003Z" stroke="#404040" stroke-width="0.630746"/>
<path d="M80.2678 346.725H0.267822V404.447H80.2678V346.725Z" stroke="#404040" stroke-width="0.630746"/>
<path d="M160.268 346.725H80.2676V404.447H160.268V346.725Z" stroke="#404040" stroke-width="0.630746"/>
<path d="M240.268 346.725H160.268V404.447H240.268V346.725Z" stroke="#404040" stroke-width="0.630746"/>
<path d="M320.268 346.725H240.268V404.447H320.268V346.725Z" stroke="#404040" stroke-width="0.630746"/>
<path d="M400.268 346.725H320.268V404.447H400.268V346.725Z" stroke="#404040" stroke-width="0.630746"/>
<path d="M480.268 346.725H400.268V404.447H480.268V346.725Z" stroke="#404040" stroke-width="0.630746"/>
<path d="M560.268 346.725H480.268V404.447H560.268V346.725Z" stroke="#404040" stroke-width="0.630746"/>
<path d="M640.268 346.725H560.268V404.447H640.268V346.725Z" stroke="#404040" stroke-width="0.630746"/>
<path d="M720.268 346.725H640.268V404.447H720.268V346.725Z" stroke="#404040" stroke-width="0.630746"/>
<path d="M800.268 346.725H720.268V404.447H800.268V346.725Z" stroke="#404040" stroke-width="0.630746"/>
<path d="M880.268 346.725H800.268V404.447H880.268V346.725Z" stroke="#404040" stroke-width="0.630746"/>
<path d="M960.268 346.725H880.268V404.447H960.268V346.725Z" stroke="#404040" stroke-width="0.630746"/>
<path d="M1040.27 346.725H960.268V404.447H1040.27V346.725Z" stroke="#404040" stroke-width="0.630746"/>
<path d="M1120.27 346.725H1040.27V404.447H1120.27V346.725Z" stroke="#404040" stroke-width="0.630746"/>
<path d="M1200.27 346.725H1120.27V404.447H1200.27V346.725Z" stroke="#404040" stroke-width="0.630746"/>
<path d="M1280.27 346.725H1200.27V404.447H1280.27V346.725Z" stroke="#404040" stroke-width="0.630746"/>
<path d="M1360.27 346.725H1280.27V404.447H1360.27V346.725Z" stroke="#404040" stroke-width="0.630746"/>
<path d="M1440.27 346.725H1360.27V404.447H1440.27V346.725Z" stroke="#404040" stroke-width="0.630746"/>
<path d="M1520.27 346.725H1440.27V404.447H1520.27V346.725Z" stroke="#404040" stroke-width="0.630746"/>
<path d="M80.2678 404.447H0.267822V462.169H80.2678V404.447Z" stroke="#404040" stroke-width="0.630746"/>
<path d="M160.268 404.447H80.2676V462.169H160.268V404.447Z" stroke="#404040" stroke-width="0.630746"/>
<path d="M240.268 404.447H160.268V462.169H240.268V404.447Z" stroke="#404040" stroke-width="0.630746"/>
<path d="M320.268 404.447H240.268V462.169H320.268V404.447Z" stroke="#404040" stroke-width="0.630746"/>
<path d="M400.268 404.447H320.268V462.169H400.268V404.447Z" stroke="#404040" stroke-width="0.630746"/>
<path d="M480.268 404.447H400.268V462.169H480.268V404.447Z" stroke="#404040" stroke-width="0.630746"/>
<path d="M560.268 404.447H480.268V462.169H560.268V404.447Z" stroke="#404040" stroke-width="0.630746"/>
<path d="M640.268 404.447H560.268V462.169H640.268V404.447Z" stroke="#404040" stroke-width="0.630746"/>
<path d="M720.268 404.447H640.268V462.169H720.268V404.447Z" stroke="#404040" stroke-width="0.630746"/>
<path d="M800.268 404.447H720.268V462.169H800.268V404.447Z" stroke="#404040" stroke-width="0.630746"/>
<path d="M880.268 404.447H800.268V462.169H880.268V404.447Z" stroke="#404040" stroke-width="0.630746"/>
<path d="M960.268 404.447H880.268V462.169H960.268V404.447Z" stroke="#404040" stroke-width="0.630746"/>
<path d="M1040.27 404.447H960.268V462.169H1040.27V404.447Z" stroke="#404040" stroke-width="0.630746"/>
<path d="M1120.27 404.447H1040.27V462.169H1120.27V404.447Z" stroke="#404040" stroke-width="0.630746"/>
<path d="M1200.27 404.447H1120.27V462.169H1200.27V404.447Z" stroke="#404040" stroke-width="0.630746"/>
<path d="M1280.27 404.447H1200.27V462.169H1280.27V404.447Z" stroke="#404040" stroke-width="0.630746"/>
<path d="M1360.27 404.447H1280.27V462.169H1360.27V404.447Z" stroke="#404040" stroke-width="0.630746"/>
<path d="M1440.27 404.447H1360.27V462.169H1440.27V404.447Z" stroke="#404040" stroke-width="0.630746"/>
<path d="M1520.27 404.447H1440.27V462.169H1520.27V404.447Z" stroke="#404040" stroke-width="0.630746"/>
<path d="M80.2678 462.169H0.267822V519.892H80.2678V462.169Z" stroke="#404040" stroke-width="0.630746"/>
<path d="M160.268 462.169H80.2676V519.892H160.268V462.169Z" stroke="#404040" stroke-width="0.630746"/>
<path d="M240.268 462.169H160.268V519.892H240.268V462.169Z" stroke="#404040" stroke-width="0.630746"/>
<path d="M320.268 462.169H240.268V519.892H320.268V462.169Z" stroke="#404040" stroke-width="0.630746"/>
<path d="M400.268 462.169H320.268V519.892H400.268V462.169Z" stroke="#404040" stroke-width="0.630746"/>
<path d="M480.268 462.169H400.268V519.892H480.268V462.169Z" stroke="#404040" stroke-width="0.630746"/>
<path d="M560.268 462.169H480.268V519.892H560.268V462.169Z" stroke="#404040" stroke-width="0.630746"/>
<path d="M640.268 462.169H560.268V519.892H640.268V462.169Z" stroke="#404040" stroke-width="0.630746"/>
<path d="M720.268 462.169H640.268V519.892H720.268V462.169Z" stroke="#404040" stroke-width="0.630746"/>
<path d="M800.268 462.169H720.268V519.892H800.268V462.169Z" stroke="#404040" stroke-width="0.630746"/>
<path d="M880.268 462.169H800.268V519.892H880.268V462.169Z" stroke="#404040" stroke-width="0.630746"/>
<path d="M960.268 462.169H880.268V519.892H960.268V462.169Z" stroke="#404040" stroke-width="0.630746"/>
<path d="M1040.27 462.169H960.268V519.892H1040.27V462.169Z" stroke="#404040" stroke-width="0.630746"/>
<path d="M1120.27 462.169H1040.27V519.892H1120.27V462.169Z" stroke="#404040" stroke-width="0.630746"/>
<path d="M1200.27 462.169H1120.27V519.892H1200.27V462.169Z" stroke="#404040" stroke-width="0.630746"/>
<path d="M1280.27 462.169H1200.27V519.892H1280.27V462.169Z" stroke="#404040" stroke-width="0.630746"/>
<path d="M1360.27 462.169H1280.27V519.892H1360.27V462.169Z" stroke="#404040" stroke-width="0.630746"/>
<path d="M1440.27 462.169H1360.27V519.892H1440.27V462.169Z" stroke="#404040" stroke-width="0.630746"/>
<path d="M1520.27 462.169H1440.27V519.892H1520.27V462.169Z" stroke="#404040" stroke-width="0.630746"/>
<path d="M80.2678 519.892H0.267822V577.614H80.2678V519.892Z" stroke="#404040" stroke-width="0.630746"/>
<path d="M160.268 519.892H80.2676V577.614H160.268V519.892Z" stroke="#404040" stroke-width="0.630746"/>
<path d="M240.268 519.892H160.268V577.614H240.268V519.892Z" stroke="#404040" stroke-width="0.630746"/>
<path d="M320.268 519.892H240.268V577.614H320.268V519.892Z" stroke="#404040" stroke-width="0.630746"/>
<path d="M400.268 519.892H320.268V577.614H400.268V519.892Z" stroke="#404040" stroke-width="0.630746"/>
<path d="M480.268 519.892H400.268V577.614H480.268V519.892Z" stroke="#404040" stroke-width="0.630746"/>
<path d="M560.268 519.892H480.268V577.614H560.268V519.892Z" stroke="#404040" stroke-width="0.630746"/>
<path d="M640.268 519.892H560.268V577.614H640.268V519.892Z" stroke="#404040" stroke-width="0.630746"/>
<path d="M720.268 519.892H640.268V577.614H720.268V519.892Z" stroke="#404040" stroke-width="0.630746"/>
<path d="M800.268 519.892H720.268V577.614H800.268V519.892Z" stroke="#404040" stroke-width="0.630746"/>
<path d="M880.268 519.892H800.268V577.614H880.268V519.892Z" stroke="#404040" stroke-width="0.630746"/>
<path d="M960.268 519.892H880.268V577.614H960.268V519.892Z" stroke="#404040" stroke-width="0.630746"/>
<path d="M1040.27 519.892H960.268V577.614H1040.27V519.892Z" stroke="#404040" stroke-width="0.630746"/>
<path d="M1120.27 519.892H1040.27V577.614H1120.27V519.892Z" stroke="#404040" stroke-width="0.630746"/>
<path d="M1200.27 519.892H1120.27V577.614H1200.27V519.892Z" stroke="#404040" stroke-width="0.630746"/>
<path d="M1280.27 519.892H1200.27V577.614H1280.27V519.892Z" stroke="#404040" stroke-width="0.630746"/>
<path d="M1360.27 519.892H1280.27V577.614H1360.27V519.892Z" stroke="#404040" stroke-width="0.630746"/>
<path d="M1440.27 519.892H1360.27V577.614H1440.27V519.892Z" stroke="#404040" stroke-width="0.630746"/>
<path d="M1520.27 519.892H1440.27V577.614H1520.27V519.892Z" stroke="#404040" stroke-width="0.630746"/>
<path d="M80.2678 577.614H0.267822V635.336H80.2678V577.614Z" stroke="#404040" stroke-width="0.630746"/>
<path d="M160.268 577.614H80.2676V635.336H160.268V577.614Z" stroke="#404040" stroke-width="0.630746"/>
<path d="M240.268 577.614H160.268V635.336H240.268V577.614Z" stroke="#404040" stroke-width="0.630746"/>
<path d="M320.268 577.614H240.268V635.336H320.268V577.614Z" stroke="#404040" stroke-width="0.630746"/>
<path d="M400.268 577.614H320.268V635.336H400.268V577.614Z" stroke="#404040" stroke-width="0.630746"/>
<path d="M480.268 577.614H400.268V635.336H480.268V577.614Z" stroke="#404040" stroke-width="0.630746"/>
<path d="M560.268 577.614H480.268V635.336H560.268V577.614Z" stroke="#404040" stroke-width="0.630746"/>
<path d="M640.268 577.614H560.268V635.336H640.268V577.614Z" stroke="#404040" stroke-width="0.630746"/>
<path d="M720.268 577.614H640.268V635.336H720.268V577.614Z" stroke="#404040" stroke-width="0.630746"/>
<path d="M800.268 577.614H720.268V635.336H800.268V577.614Z" stroke="#404040" stroke-width="0.630746"/>
<path d="M880.268 577.614H800.268V635.336H880.268V577.614Z" stroke="#404040" stroke-width="0.630746"/>
<path d="M960.268 577.614H880.268V635.336H960.268V577.614Z" stroke="#404040" stroke-width="0.630746"/>
<path d="M1040.27 577.614H960.268V635.336H1040.27V577.614Z" stroke="#404040" stroke-width="0.630746"/>
<path d="M1120.27 577.614H1040.27V635.336H1120.27V577.614Z" stroke="#404040" stroke-width="0.630746"/>
<path d="M1200.27 577.614H1120.27V635.336H1200.27V577.614Z" stroke="#404040" stroke-width="0.630746"/>
<path d="M1280.27 577.614H1200.27V635.336H1280.27V577.614Z" stroke="#404040" stroke-width="0.630746"/>
<path d="M1360.27 577.614H1280.27V635.336H1360.27V577.614Z" stroke="#404040" stroke-width="0.630746"/>
<path d="M1440.27 577.614H1360.27V635.336H1440.27V577.614Z" stroke="#404040" stroke-width="0.630746"/>
<path d="M1520.27 577.614H1440.27V635.336H1520.27V577.614Z" stroke="#404040" stroke-width="0.630746"/>
<path d="M80.2678 635.336H0.267822V693.058H80.2678V635.336Z" stroke="#404040" stroke-width="0.630746"/>
<path d="M160.268 635.336H80.2676V693.058H160.268V635.336Z" stroke="#404040" stroke-width="0.630746"/>
<path d="M240.268 635.336H160.268V693.058H240.268V635.336Z" stroke="#404040" stroke-width="0.630746"/>
<path d="M320.268 635.336H240.268V693.058H320.268V635.336Z" stroke="#404040" stroke-width="0.630746"/>
<path d="M400.268 635.336H320.268V693.058H400.268V635.336Z" stroke="#404040" stroke-width="0.630746"/>
<path d="M480.268 635.336H400.268V693.058H480.268V635.336Z" stroke="#404040" stroke-width="0.630746"/>
<path d="M560.268 635.336H480.268V693.058H560.268V635.336Z" stroke="#404040" stroke-width="0.630746"/>
<path d="M640.268 635.336H560.268V693.058H640.268V635.336Z" stroke="#404040" stroke-width="0.630746"/>
<path d="M720.268 635.336H640.268V693.058H720.268V635.336Z" stroke="#404040" stroke-width="0.630746"/>
<path d="M800.268 635.336H720.268V693.058H800.268V635.336Z" stroke="#404040" stroke-width="0.630746"/>
<path d="M880.268 635.336H800.268V693.058H880.268V635.336Z" stroke="#404040" stroke-width="0.630746"/>
<path d="M960.268 635.336H880.268V693.058H960.268V635.336Z" stroke="#404040" stroke-width="0.630746"/>
<path d="M1040.27 635.336H960.268V693.058H1040.27V635.336Z" stroke="#404040" stroke-width="0.630746"/>
<path d="M1120.27 635.336H1040.27V693.058H1120.27V635.336Z" stroke="#404040" stroke-width="0.630746"/>
<path d="M1200.27 635.336H1120.27V693.058H1200.27V635.336Z" stroke="#404040" stroke-width="0.630746"/>
<path d="M1280.27 635.336H1200.27V693.058H1280.27V635.336Z" stroke="#404040" stroke-width="0.630746"/>
<path d="M1360.27 635.336H1280.27V693.058H1360.27V635.336Z" stroke="#404040" stroke-width="0.630746"/>
<path d="M1440.27 635.336H1360.27V693.058H1440.27V635.336Z" stroke="#404040" stroke-width="0.630746"/>
<path d="M1520.27 635.336H1440.27V693.058H1520.27V635.336Z" stroke="#404040" stroke-width="0.630746"/>
<path d="M80.2678 693.058H0.267822V750.781H80.2678V693.058Z" stroke="#404040" stroke-width="0.630746"/>
<path d="M160.268 693.058H80.2676V750.781H160.268V693.058Z" stroke="#404040" stroke-width="0.630746"/>
<path d="M240.268 693.058H160.268V750.781H240.268V693.058Z" stroke="#404040" stroke-width="0.630746"/>
<path d="M320.268 693.058H240.268V750.781H320.268V693.058Z" stroke="#404040" stroke-width="0.630746"/>
<path d="M400.268 693.058H320.268V750.781H400.268V693.058Z" stroke="#404040" stroke-width="0.630746"/>
<path d="M480.268 693.058H400.268V750.781H480.268V693.058Z" stroke="#404040" stroke-width="0.630746"/>
<path d="M560.268 693.058H480.268V750.781H560.268V693.058Z" stroke="#404040" stroke-width="0.630746"/>
<path d="M640.268 693.058H560.268V750.781H640.268V693.058Z" stroke="#404040" stroke-width="0.630746"/>
<path d="M720.268 693.058H640.268V750.781H720.268V693.058Z" stroke="#404040" stroke-width="0.630746"/>
<path d="M800.268 693.058H720.268V750.781H800.268V693.058Z" stroke="#404040" stroke-width="0.630746"/>
<path d="M880.268 693.058H800.268V750.781H880.268V693.058Z" stroke="#404040" stroke-width="0.630746"/>
<path d="M960.268 693.058H880.268V750.781H960.268V693.058Z" stroke="#404040" stroke-width="0.630746"/>
<path d="M1040.27 693.058H960.268V750.781H1040.27V693.058Z" stroke="#404040" stroke-width="0.630746"/>
<path d="M1120.27 693.058H1040.27V750.781H1120.27V693.058Z" stroke="#404040" stroke-width="0.630746"/>
<path d="M1200.27 693.058H1120.27V750.781H1200.27V693.058Z" stroke="#404040" stroke-width="0.630746"/>
<path d="M1280.27 693.058H1200.27V750.781H1280.27V693.058Z" stroke="#404040" stroke-width="0.630746"/>
<path d="M1360.27 693.058H1280.27V750.781H1360.27V693.058Z" stroke="#404040" stroke-width="0.630746"/>
<path d="M1440.27 693.058H1360.27V750.781H1440.27V693.058Z" stroke="#404040" stroke-width="0.630746"/>
<path d="M1520.27 693.058H1440.27V750.781H1520.27V693.058Z" stroke="#404040" stroke-width="0.630746"/>
<path d="M80.2678 750.781H0.267822V808.503H80.2678V750.781Z" stroke="#404040" stroke-width="0.630746"/>
<path d="M160.268 750.781H80.2676V808.503H160.268V750.781Z" stroke="#404040" stroke-width="0.630746"/>
<path d="M240.268 750.781H160.268V808.503H240.268V750.781Z" stroke="#404040" stroke-width="0.630746"/>
<path d="M320.268 750.781H240.268V808.503H320.268V750.781Z" stroke="#404040" stroke-width="0.630746"/>
<path d="M400.268 750.781H320.268V808.503H400.268V750.781Z" stroke="#404040" stroke-width="0.630746"/>
<path d="M480.268 750.781H400.268V808.503H480.268V750.781Z" stroke="#404040" stroke-width="0.630746"/>
<path d="M560.268 750.781H480.268V808.503H560.268V750.781Z" stroke="#404040" stroke-width="0.630746"/>
<path d="M640.268 750.781H560.268V808.503H640.268V750.781Z" stroke="#404040" stroke-width="0.630746"/>
<path d="M720.268 750.781H640.268V808.503H720.268V750.781Z" stroke="#404040" stroke-width="0.630746"/>
<path d="M800.268 750.781H720.268V808.503H800.268V750.781Z" stroke="#404040" stroke-width="0.630746"/>
<path d="M880.268 750.781H800.268V808.503H880.268V750.781Z" stroke="#404040" stroke-width="0.630746"/>
<path d="M960.268 750.781H880.268V808.503H960.268V750.781Z" stroke="#404040" stroke-width="0.630746"/>
<path d="M1040.27 750.781H960.268V808.503H1040.27V750.781Z" stroke="#404040" stroke-width="0.630746"/>
<path d="M1120.27 750.781H1040.27V808.503H1120.27V750.781Z" stroke="#404040" stroke-width="0.630746"/>
<path d="M1200.27 750.781H1120.27V808.503H1200.27V750.781Z" stroke="#404040" stroke-width="0.630746"/>
<path d="M1280.27 750.781H1200.27V808.503H1280.27V750.781Z" stroke="#404040" stroke-width="0.630746"/>
<path d="M1360.27 750.781H1280.27V808.503H1360.27V750.781Z" stroke="#404040" stroke-width="0.630746"/>
<path d="M1440.27 750.781H1360.27V808.503H1440.27V750.781Z" stroke="#404040" stroke-width="0.630746"/>
<path d="M1520.27 750.781H1440.27V808.503H1520.27V750.781Z" stroke="#404040" stroke-width="0.630746"/>
<path d="M80.2678 808.503H0.267822V866.225H80.2678V808.503Z" stroke="#404040" stroke-width="0.630746"/>
<path d="M160.268 808.503H80.2676V866.225H160.268V808.503Z" stroke="#404040" stroke-width="0.630746"/>
<path d="M240.268 808.503H160.268V866.225H240.268V808.503Z" stroke="#404040" stroke-width="0.630746"/>
<path d="M320.268 808.503H240.268V866.225H320.268V808.503Z" stroke="#404040" stroke-width="0.630746"/>
<path d="M400.268 808.503H320.268V866.225H400.268V808.503Z" stroke="#404040" stroke-width="0.630746"/>
<path d="M480.268 808.503H400.268V866.225H480.268V808.503Z" stroke="#404040" stroke-width="0.630746"/>
<path d="M560.268 808.503H480.268V866.225H560.268V808.503Z" stroke="#404040" stroke-width="0.630746"/>
<path d="M640.268 808.503H560.268V866.225H640.268V808.503Z" stroke="#404040" stroke-width="0.630746"/>
<path d="M720.268 808.503H640.268V866.225H720.268V808.503Z" stroke="#404040" stroke-width="0.630746"/>
<path d="M800.268 808.503H720.268V866.225H800.268V808.503Z" stroke="#404040" stroke-width="0.630746"/>
<path d="M880.268 808.503H800.268V866.225H880.268V808.503Z" stroke="#404040" stroke-width="0.630746"/>
<path d="M960.268 808.503H880.268V866.225H960.268V808.503Z" stroke="#404040" stroke-width="0.630746"/>
<path d="M1040.27 808.503H960.268V866.225H1040.27V808.503Z" stroke="#404040" stroke-width="0.630746"/>
<path d="M1120.27 808.503H1040.27V866.225H1120.27V808.503Z" stroke="#404040" stroke-width="0.630746"/>
<path d="M1200.27 808.503H1120.27V866.225H1200.27V808.503Z" stroke="#404040" stroke-width="0.630746"/>
<path d="M1280.27 808.503H1200.27V866.225H1280.27V808.503Z" stroke="#404040" stroke-width="0.630746"/>
<path d="M1360.27 808.503H1280.27V866.225H1360.27V808.503Z" stroke="#404040" stroke-width="0.630746"/>
<path d="M1440.27 808.503H1360.27V866.225H1440.27V808.503Z" stroke="#404040" stroke-width="0.630746"/>
<path d="M1520.27 808.503H1440.27V866.225H1520.27V808.503Z" stroke="#404040" stroke-width="0.630746"/>
<path d="M80.2678 866.225H0.267822V923.947H80.2678V866.225Z" stroke="#404040" stroke-width="0.630746"/>
<path d="M160.268 866.225H80.2676V923.947H160.268V866.225Z" stroke="#404040" stroke-width="0.630746"/>
<path d="M240.268 866.225H160.268V923.947H240.268V866.225Z" stroke="#404040" stroke-width="0.630746"/>
<path d="M320.268 866.225H240.268V923.947H320.268V866.225Z" stroke="#404040" stroke-width="0.630746"/>
<path d="M400.268 866.225H320.268V923.947H400.268V866.225Z" stroke="#404040" stroke-width="0.630746"/>
<path d="M480.268 866.225H400.268V923.947H480.268V866.225Z" stroke="#404040" stroke-width="0.630746"/>
<path d="M560.268 866.225H480.268V923.947H560.268V866.225Z" stroke="#404040" stroke-width="0.630746"/>
<path d="M640.268 866.225H560.268V923.947H640.268V866.225Z" stroke="#404040" stroke-width="0.630746"/>
<path d="M720.268 866.225H640.268V923.947H720.268V866.225Z" stroke="#404040" stroke-width="0.630746"/>
<path d="M800.268 866.225H720.268V923.947H800.268V866.225Z" stroke="#404040" stroke-width="0.630746"/>
<path d="M880.268 866.225H800.268V923.947H880.268V866.225Z" stroke="#404040" stroke-width="0.630746"/>
<path d="M960.268 866.225H880.268V923.947H960.268V866.225Z" stroke="#404040" stroke-width="0.630746"/>
<path d="M1040.27 866.225H960.268V923.947H1040.27V866.225Z" stroke="#404040" stroke-width="0.630746"/>
<path d="M1120.27 866.225H1040.27V923.947H1120.27V866.225Z" stroke="#404040" stroke-width="0.630746"/>
<path d="M1200.27 866.225H1120.27V923.947H1200.27V866.225Z" stroke="#404040" stroke-width="0.630746"/>
<path d="M1280.27 866.225H1200.27V923.947H1280.27V866.225Z" stroke="#404040" stroke-width="0.630746"/>
<path d="M1360.27 866.225H1280.27V923.947H1360.27V866.225Z" stroke="#404040" stroke-width="0.630746"/>
<path d="M1440.27 866.225H1360.27V923.947H1440.27V866.225Z" stroke="#404040" stroke-width="0.630746"/>
<path d="M1520.27 866.225H1440.27V923.947H1520.27V866.225Z" stroke="#404040" stroke-width="0.630746"/>
<path d="M80.2678 923.947H0.267822V981.669H80.2678V923.947Z" stroke="#404040" stroke-width="0.630746"/>
<path d="M160.268 923.947H80.2676V981.669H160.268V923.947Z" stroke="#404040" stroke-width="0.630746"/>
<path d="M240.268 923.947H160.268V981.669H240.268V923.947Z" stroke="#404040" stroke-width="0.630746"/>
<path d="M320.268 923.947H240.268V981.669H320.268V923.947Z" stroke="#404040" stroke-width="0.630746"/>
<path d="M400.268 923.947H320.268V981.669H400.268V923.947Z" stroke="#404040" stroke-width="0.630746"/>
<path d="M480.268 923.947H400.268V981.669H480.268V923.947Z" stroke="#404040" stroke-width="0.630746"/>
<path d="M560.268 923.947H480.268V981.669H560.268V923.947Z" stroke="#404040" stroke-width="0.630746"/>
<path d="M640.268 923.947H560.268V981.669H640.268V923.947Z" stroke="#404040" stroke-width="0.630746"/>
<path d="M720.268 923.947H640.268V981.669H720.268V923.947Z" stroke="#404040" stroke-width="0.630746"/>
<path d="M800.268 923.947H720.268V981.669H800.268V923.947Z" stroke="#404040" stroke-width="0.630746"/>
<path d="M880.268 923.947H800.268V981.669H880.268V923.947Z" stroke="#404040" stroke-width="0.630746"/>
<path d="M960.268 923.947H880.268V981.669H960.268V923.947Z" stroke="#404040" stroke-width="0.630746"/>
<path d="M1040.27 923.947H960.268V981.669H1040.27V923.947Z" stroke="#404040" stroke-width="0.630746"/>
<path d="M1120.27 923.947H1040.27V981.669H1120.27V923.947Z" stroke="#404040" stroke-width="0.630746"/>
<path d="M1200.27 923.947H1120.27V981.669H1200.27V923.947Z" stroke="#404040" stroke-width="0.630746"/>
<path d="M1280.27 923.947H1200.27V981.669H1280.27V923.947Z" stroke="#404040" stroke-width="0.630746"/>
<path d="M1360.27 923.947H1280.27V981.669H1360.27V923.947Z" stroke="#404040" stroke-width="0.630746"/>
<path d="M1440.27 923.947H1360.27V981.669H1440.27V923.947Z" stroke="#404040" stroke-width="0.630746"/>
<path d="M1520.27 923.947H1440.27V981.669H1520.27V923.947Z" stroke="#404040" stroke-width="0.630746"/>
<path d="M80.2678 981.669H0.267822V1039.39H80.2678V981.669Z" stroke="#404040" stroke-width="0.630746"/>
<path d="M160.268 981.669H80.2676V1039.39H160.268V981.669Z" stroke="#404040" stroke-width="0.630746"/>
<path d="M240.268 981.669H160.268V1039.39H240.268V981.669Z" stroke="#404040" stroke-width="0.630746"/>
<path d="M320.268 981.669H240.268V1039.39H320.268V981.669Z" stroke="#404040" stroke-width="0.630746"/>
<path d="M400.268 981.669H320.268V1039.39H400.268V981.669Z" stroke="#404040" stroke-width="0.630746"/>
<path d="M480.268 981.669H400.268V1039.39H480.268V981.669Z" stroke="#404040" stroke-width="0.630746"/>
<path d="M560.268 981.669H480.268V1039.39H560.268V981.669Z" stroke="#404040" stroke-width="0.630746"/>
<path d="M640.268 981.669H560.268V1039.39H640.268V981.669Z" stroke="#404040" stroke-width="0.630746"/>
<path d="M720.268 981.669H640.268V1039.39H720.268V981.669Z" stroke="#404040" stroke-width="0.630746"/>
<path d="M800.268 981.669H720.268V1039.39H800.268V981.669Z" stroke="#404040" stroke-width="0.630746"/>
<path d="M880.268 981.669H800.268V1039.39H880.268V981.669Z" stroke="#404040" stroke-width="0.630746"/>
<path d="M960.268 981.669H880.268V1039.39H960.268V981.669Z" stroke="#404040" stroke-width="0.630746"/>
<path d="M1040.27 981.669H960.268V1039.39H1040.27V981.669Z" stroke="#404040" stroke-width="0.630746"/>
<path d="M1120.27 981.669H1040.27V1039.39H1120.27V981.669Z" stroke="#404040" stroke-width="0.630746"/>
<path d="M1200.27 981.669H1120.27V1039.39H1200.27V981.669Z" stroke="#404040" stroke-width="0.630746"/>
<path d="M1280.27 981.669H1200.27V1039.39H1280.27V981.669Z" stroke="#404040" stroke-width="0.630746"/>
<path d="M1360.27 981.669H1280.27V1039.39H1360.27V981.669Z" stroke="#404040" stroke-width="0.630746"/>
<path d="M1440.27 981.669H1360.27V1039.39H1440.27V981.669Z" stroke="#404040" stroke-width="0.630746"/>
<path d="M1520.27 981.669H1440.27V1039.39H1520.27V981.669Z" stroke="#404040" stroke-width="0.630746"/>
</g>
<defs>
<clipPath id="clip0_19_1956">
<rect width="1440" height="1039" fill="white" transform="translate(0.267822 0.391602)"/>
</clipPath>
</defs>
</svg>
